<?xml version="1.0" encoding="utf-8"?>
<!-- Generator: Adobe Illustrator 25.0.1, SVG Export Plug-In . SVG Version: 6.00 Build 0)  -->
<svg version="1.1" id="U_shapes" xmlns="http://www.w3.org/2000/svg" xmlns:xlink="http://www.w3.org/1999/xlink" x="0px" y="0px"
	 viewBox="0 0 792 612" style="enable-background:new 0 0 792 612;" xml:space="preserve">
<style type="text/css">
	.st0{fill:#FFFFFF;}
	.st1{fill:#FFFFFF;stroke:#FFFFFF;stroke-miterlimit:10;}
</style>
<path class="st0" d="M145.5,204.8c0,0,45.2-33.6,135.2-47.2v95.8c0,0,3.8,33.1,35.4,53.3c31.6,20.2,107.1,31.6,159.4,0.2
	c0,0,29.3-20.7,36.4-48.8V157c0,0,69.5,9.4,135.2,47.5c0,0,4.8,58.4-89.4,101.8c0,0-65.7,32.1-165,32.8s-157.9-32.8-157.9-32.8
	S145,269.2,145.5,204.8z"/>
<path class="st0" d="M145.2,405.1c0,0,45.2,33.6,135.2,47.2v-95.8c0,0,3.8-33.1,35.4-53.3c31.6-20.2,107.1-31.6,159.4-0.2
	c0,0,29.3,20.7,36.4,48.8v101c0,0,69.5-9.4,135.2-47.5c0,0,4.8-58.4-89.4-101.8c0,0-65.7-32.1-165-32.8s-157.9,32.8-157.9,32.8
	S144.7,340.6,145.2,405.1z"/>
<g>
	<line class="st1" x1="663" y1="400.9" x2="665" y2="405.2"/>
	<ellipse class="st1" cx="661.8" cy="400.4" rx="8.1" ry="7.6"/>
	<path class="st1" d="M659.8,405.3v-7.8l3.1-0.1c0,0,2.1-0.2,2,1.8s-2,1.7-2,1.7l-2.9,0"/>
</g>
</svg>
