<?xml version="1.0" encoding="utf-8"?>
<!-- Generator: Adobe Illustrator 25.0.1, SVG Export Plug-In . SVG Version: 6.00 Build 0)  -->
<svg version="1.1" id="U_shapes" xmlns="http://www.w3.org/2000/svg" xmlns:xlink="http://www.w3.org/1999/xlink" x="0px" y="0px"
	 viewBox="0 0 792 612" style="enable-background:new 0 0 792 612;" xml:space="preserve">
<style type="text/css">
	.st0{fill:#E61D2D;}
	.st1{fill:none;stroke:#E61D2D;stroke-miterlimit:10;}
</style>
<g>
	<path class="st0" d="M145.46,204.77c0,0,45.22-33.6,135.16-47.24v95.75c0,0,3.79,33.09,35.37,53.31
		c31.58,20.21,107.12,31.58,159.41,0.25c0,0,29.31-20.72,36.38-48.76V157.02c0,0,69.47,9.35,135.16,47.49
		c0,0,4.8,58.36-89.43,101.81c0,0-65.68,32.08-164.97,32.84s-157.89-32.84-157.89-32.84S144.96,269.19,145.46,204.77z"/>
	<path class="st0" d="M145.24,405.06c0,0,45.22,33.6,135.16,47.24v-95.75c0,0,3.79-33.09,35.37-53.31
		c31.58-20.21,107.12-31.58,159.41-0.25c0,0,29.31,20.72,36.38,48.76v101.05c0,0,69.47-9.35,135.16-47.49
		c0,0,4.8-58.36-89.43-101.81c0,0-65.68-32.08-164.97-32.84S234.42,303.5,234.42,303.5S144.74,340.64,145.24,405.06z"/>
	<g>
		<line class="st1" x1="663.05" y1="400.9" x2="664.98" y2="405.22"/>
		<ellipse class="st1" cx="661.79" cy="400.42" rx="8.12" ry="7.63"/>
		<path class="st1" d="M659.77,405.32v-7.83l3.09-0.06c0,0,2.08-0.16,2.02,1.77c-0.06,1.93-2.05,1.67-2.05,1.67l-2.94,0.03"/>
	</g>
</g>
</svg>
